<svg width="1134" height="1134" xmlns="http://www.w3.org/2000/svg" xmlns:xlink="http://www.w3.org/1999/xlink" overflow="hidden"><defs><clipPath id="clip0"><rect x="0" y="0" width="1134" height="1134"/></clipPath></defs><g clip-path="url(#clip0)"><rect x="0" y="0" width="1134" height="1134" fill="#FFFFFF"/><path d="M0 0 192.914 138.856" stroke="#595959" stroke-width="11.335" stroke-miterlimit="8" fill="none" fill-rule="evenodd" transform="matrix(1 0 0 -1 267.5 330.356)"/><path d="M0 0 224.375 385.111" stroke="#595959" stroke-width="11.335" stroke-miterlimit="8" fill="none" fill-rule="evenodd" transform="matrix(1 0 0 -1 267.5 652.611)"/><path d="M298.5 406.5 491.414 491.656" stroke="#595959" stroke-width="11.335" stroke-miterlimit="8" fill="none" fill-rule="evenodd"/><path d="M267.5 482.5 491.875 867.61" stroke="#595959" stroke-width="11.335" stroke-miterlimit="8" fill="none" fill-rule="evenodd"/><path d="M567.5 674.5 567.5 835.599" stroke="#595959" stroke-width="11.335" stroke-miterlimit="8" fill="none" fill-rule="evenodd"/><path d="M267.5 804.5 460.414 943.355" stroke="#595959" stroke-width="11.335" stroke-miterlimit="8" fill="none" fill-rule="evenodd"/><path d="M674.5 567.5 835.953 567.5" stroke="#595959" stroke-width="11.335" stroke-miterlimit="8" fill="none" fill-rule="evenodd"/><path d="M674.5 191.5 867.414 491.454" stroke="#595959" stroke-width="11.335" stroke-miterlimit="8" fill="none" fill-rule="evenodd"/><path d="M0 0 224.375 224.012" stroke="#595959" stroke-width="11.335" stroke-miterlimit="8" fill="none" fill-rule="evenodd" transform="matrix(-1 0 0 1 867.875 643.5)"/><path d="M460.5 567.5C460.5 508.406 508.406 460.5 567.5 460.5 626.594 460.5 674.5 508.406 674.5 567.5 674.5 626.594 626.594 674.5 567.5 674.5 508.406 674.5 460.5 626.594 460.5 567.5Z" stroke="#ED6571" stroke-width="9.33471" stroke-miterlimit="8" fill="#ED6571" fill-rule="evenodd"/><path d="M83.5 406.5C83.5 347.406 131.629 299.5 191 299.5 250.371 299.5 298.5 347.406 298.5 406.5 298.5 465.594 250.371 513.5 191 513.5 131.629 513.5 83.5 465.594 83.5 406.5Z" stroke="#91CBD7" stroke-width="9.33471" stroke-miterlimit="8" fill="#91CBD7" fill-rule="evenodd"/><path d="M460.5 192C460.5 132.629 508.406 84.5 567.5 84.5 626.594 84.5 674.5 132.629 674.5 192 674.5 251.371 626.594 299.5 567.5 299.5 508.406 299.5 460.5 251.371 460.5 192Z" stroke="#F69489" stroke-width="9.33471" stroke-miterlimit="8" fill="#F69489" fill-rule="evenodd"/><path d="M83.5 728.5C83.5 669.405 131.629 621.5 191 621.5 250.371 621.5 298.5 669.405 298.5 728.5 298.5 787.594 250.371 835.5 191 835.5 131.629 835.5 83.5 787.594 83.5 728.5Z" stroke="#4E9BB9" stroke-width="9.33471" stroke-miterlimit="8" fill="#4E9BB9" fill-rule="evenodd"/><path d="M460.5 943C460.5 883.629 508.406 835.5 567.5 835.5 626.594 835.5 674.5 883.629 674.5 943 674.5 1002.37 626.594 1050.5 567.5 1050.5 508.406 1050.5 460.5 1002.37 460.5 943Z" stroke="#91CBD7" stroke-width="9.33471" stroke-miterlimit="8" fill="#91CBD7" fill-rule="evenodd"/><path d="M836.5 567.5C836.5 508.406 884.629 460.5 944 460.5 1003.37 460.5 1051.5 508.406 1051.5 567.5 1051.5 626.594 1003.37 674.5 944 674.5 884.629 674.5 836.5 626.594 836.5 567.5Z" stroke="#FFD086" stroke-width="9.33471" stroke-miterlimit="8" fill="#FFD086" fill-rule="evenodd"/></g></svg>