<svg width="1134" height="378" xmlns="http://www.w3.org/2000/svg" xmlns:xlink="http://www.w3.org/1999/xlink" overflow="hidden"><defs><clipPath id="clip0"><rect x="0" y="0" width="1134" height="378"/></clipPath></defs><g clip-path="url(#clip0)"><rect x="0" y="0" width="1134" height="377.944" fill="#FFFFFF"/><text fill="#00B0F0" font-family="Daytona,Daytona_MSFontService,sans-serif" font-weight="400" font-size="128" transform="matrix(1 0 0 0.999853 288.976 165)">we love data<tspan fill="#000000" font-size="59" x="0" y="92.0135">your  digitalization partner </tspan></text><path d="M263 93.9861 263 331.635" stroke="#000000" stroke-width="4.00059" stroke-miterlimit="8" fill="none" fill-rule="evenodd"/><path d="M0 0 35.2425 25.3879" stroke="#00B0F0" stroke-width="6.66667" stroke-miterlimit="8" fill="none" fill-rule="evenodd" transform="matrix(1.00015 0 0 -1 72.5 162.868)"/><path d="M0 0 40.99 70.4125" stroke="#00B0F0" stroke-width="6.66667" stroke-miterlimit="8" fill="none" fill-rule="evenodd" transform="matrix(1.00015 0 0 -1 72.5 221.89)"/><path d="M78.5 176.474 113.748 192.044" stroke="#00B0F0" stroke-width="6.66765" stroke-miterlimit="8" fill="none" fill-rule="evenodd"/><path d="M72.5 190.472 113.496 260.884" stroke="#00B0F0" stroke-width="6.66765" stroke-miterlimit="8" fill="none" fill-rule="evenodd"/><path d="M127.5 225.467 127.5 254.922" stroke="#00B0F0" stroke-width="11.335" stroke-miterlimit="8" fill="none" fill-rule="evenodd"/><path d="M72.5 249.463 107.748 274.851" stroke="#00B0F0" stroke-width="6.66765" stroke-miterlimit="8" fill="none" fill-rule="evenodd"/><path d="M147.5 206.47 176.999 206.47" stroke="#00B0F0" stroke-width="6.66765" stroke-miterlimit="8" fill="none" fill-rule="evenodd"/><path d="M147.5 137.48 182.748 192.323" stroke="#00B0F0" stroke-width="6.66765" stroke-miterlimit="8" fill="none" fill-rule="evenodd"/><path d="M0 0 40.99 40.9576" stroke="#00B0F0" stroke-width="6.66667" stroke-miterlimit="8" fill="none" fill-rule="evenodd" transform="matrix(-1.00015 0 0 1 182.496 220.468)"/><path d="M108.5 205.97C108.5 195.202 117.23 186.473 128 186.473 138.77 186.473 147.5 195.202 147.5 205.97 147.5 216.738 138.77 225.467 128 225.467 117.23 225.467 108.5 216.738 108.5 205.97Z" stroke="#ED6571" stroke-width="9.33471" stroke-miterlimit="8" fill="#ED6571" fill-rule="evenodd"/><path d="M39.5 176.974C39.5 166.206 48.2304 157.477 59 157.477 69.7696 157.477 78.5 166.206 78.5 176.974 78.5 187.742 69.7696 196.471 59 196.471 48.2304 196.471 39.5 187.742 39.5 176.974Z" stroke="#91CBD7" stroke-width="9.33471" stroke-miterlimit="8" fill="#91CBD7" fill-rule="evenodd"/><path d="M108.5 137.48C108.5 126.436 117.23 117.483 128 117.483 138.77 117.483 147.5 126.436 147.5 137.48 147.5 148.524 138.77 157.477 128 157.477 117.23 157.477 108.5 148.524 108.5 137.48Z" stroke="#F69489" stroke-width="9.33471" stroke-miterlimit="8" fill="#F69489" fill-rule="evenodd"/><path d="M39.5 235.965C39.5 225.197 48.2304 216.468 59 216.468 69.7696 216.468 78.5 225.197 78.5 235.965 78.5 246.733 69.7696 255.462 59 255.462 48.2304 255.462 39.5 246.733 39.5 235.965Z" stroke="#4E9BB9" stroke-width="9.33471" stroke-miterlimit="8" fill="#4E9BB9" fill-rule="evenodd"/><path d="M108.5 274.96C108.5 264.192 117.23 255.462 128 255.462 138.77 255.462 147.5 264.192 147.5 274.96 147.5 285.728 138.77 294.457 128 294.457 117.23 294.457 108.5 285.728 108.5 274.96Z" stroke="#91CBD7" stroke-width="9.33471" stroke-miterlimit="8" fill="#91CBD7" fill-rule="evenodd"/><path d="M176.5 205.97C176.5 195.202 185.454 186.473 196.5 186.473 207.546 186.473 216.5 195.202 216.5 205.97 216.5 216.738 207.546 225.467 196.5 225.467 185.454 225.467 176.5 216.738 176.5 205.97Z" stroke="#FFD086" stroke-width="9.33471" stroke-miterlimit="8" fill="#FFD086" fill-rule="evenodd"/></g></svg>